<?xml version="1.0" encoding="UTF-8" standalone="no"?>
<svg
   xmlns:dc="http://purl.org/dc/elements/1.1/"
   xmlns:cc="http://creativecommons.org/ns#"
   xmlns:rdf="http://www.w3.org/1999/02/22-rdf-syntax-ns#"
   xmlns:svg="http://www.w3.org/2000/svg"
   xmlns="http://www.w3.org/2000/svg"
   xmlns:sodipodi="http://sodipodi.sourceforge.net/DTD/sodipodi-0.dtd"
   xmlns:inkscape="http://www.inkscape.org/namespaces/inkscape"
   width="210mm"
   height="297mm"
   viewBox="0 0 210 297"
   version="1.1"
   id="svg1442"
   inkscape:version="1.0.2 (394de47547, 2021-03-26)"
   sodipodi:docname="leaf.svg"
   inkscape:export-filename="/home/emanuel/leaf.png"
   inkscape:export-xdpi="96"
   inkscape:export-ydpi="96">
  <defs
     id="defs1436" />
  <sodipodi:namedview
     id="base"
     pagecolor="#ffffff"
     bordercolor="#666666"
     borderopacity="1.0"
     inkscape:pageopacity="0.0"
     inkscape:pageshadow="2"
     inkscape:zoom="1.4"
     inkscape:cx="665.69898"
     inkscape:cy="325.35967"
     inkscape:document-units="mm"
     inkscape:current-layer="layer1"
     inkscape:document-rotation="0"
     showgrid="false"
     inkscape:window-width="1920"
     inkscape:window-height="1015"
     inkscape:window-x="1080"
     inkscape:window-y="420"
     inkscape:window-maximized="1" />
  <metadata
     id="metadata1439">
    <rdf:RDF>
      <cc:Work
         rdf:about="">
        <dc:format>image/svg+xml</dc:format>
        <dc:type
           rdf:resource="http://purl.org/dc/dcmitype/StillImage" />
        <dc:title></dc:title>
      </cc:Work>
    </rdf:RDF>
  </metadata>
  <g
     inkscape:label="Layer 1"
     inkscape:groupmode="layer"
     id="layer1">
    <path
       style="fill:none;stroke:#000000;stroke-width:0.43076px;stroke-linecap:butt;stroke-linejoin:miter;stroke-opacity:1"
       d="M 33.894111,45.275245 C 32.207271,15.3455 0.23938804,13.390303 0.23938804,13.390303"
       id="path2025" />
    <path
       style="fill:none;stroke:#000000;stroke-width:0.499003px;stroke-linecap:butt;stroke-linejoin:miter;stroke-opacity:1"
       d="m 0.23938804,13.390303 c 0,0 4.50665986,23.635175 29.80768496,17.712234"
       id="path2039" />
    <path
       style="fill:none;stroke:#000000;stroke-width:0.499003px;stroke-linecap:butt;stroke-linejoin:miter;stroke-opacity:1"
       d="m 0.23938804,13.390303 c 0,0 38.08785696,-10.562783 29.80768496,17.712234"
       id="path2041" />
    <path
       style="fill:#00ff00;stroke:#fef295;stroke-width:0"
       d="M 19.509655,31.567111 C 11.802207,30.676529 5.8034735,26.084144 2.3068582,18.397389 1.5302877,16.690222 0.56449753,13.917709 0.69864276,13.780659 c 0.0926574,-0.09463 2.57200644,0.274416 4.30947244,0.641521 9.3549558,1.976505 17.3513288,6.567286 22.1088748,12.692889 1.091494,1.405352 2.543967,3.622028 2.440568,3.724636 -0.11159,0.110695 -2.30139,0.493998 -3.884409,0.679853 -1.815559,0.213152 -4.547906,0.23422 -6.163494,0.04761 z"
       id="path2043" />
    <path
       style="fill:#00ff00;stroke:#fef295;stroke-width:0"
       d="M 29.77361,29.960788 C 29.603732,29.470958 27.731401,26.899636 26.606085,25.610759 22.256093,20.62855 16.519701,17.118056 8.9823178,14.825553 7.3522523,14.329789 4.3068003,13.622461 3.1778376,13.477457 2.7971266,13.428454 2.4618621,13.345922 2.4328081,13.293944 2.3185461,13.089362 7.3547624,12.26026 10.435468,11.97648 c 1.944342,-0.179148 6.148573,-0.182521 7.767609,-0.0059 6.055714,0.659138 10.049059,2.983742 11.72342,6.824399 0.659212,1.512107 0.843046,2.401143 0.92138,4.455854 0.07582,1.988886 -0.03933,3.196955 -0.519635,5.453054 -0.286273,1.344624 -0.419559,1.646755 -0.554632,1.257251 z"
       id="path2045" />
    <path
       style="fill:none;stroke:#000000;stroke-width:0.499003px;stroke-linecap:butt;stroke-linejoin:miter;stroke-opacity:1"
       d="m 33.894111,45.275245 c 0,0 2.631123,-36.7298009 25.928043,-38.5414997"
       id="path2049" />
    <path
       style="fill:none;stroke:#000000;stroke-width:0.499003px;stroke-linecap:butt;stroke-linejoin:miter;stroke-opacity:1"
       d="m 59.822154,6.7337453 c 0,0 -33.561287,-9.6723984 -23.394032,26.1150807"
       id="path2053" />
    <path
       style="fill:none;stroke:#000000;stroke-width:0.499003px;stroke-linecap:butt;stroke-linejoin:miter;stroke-opacity:1"
       d="M 59.822154,6.7337453 C 44.561733,29.634731 43.082631,35.736861 36.428122,32.848826"
       id="path2055" />
    <path
       style="fill:#00ff00;stroke:#fef295;stroke-width:0"
       d="m 37.652881,32.912351 c -0.461218,-0.137483 -0.879013,-0.253288 -0.928428,-0.257494 -0.170702,-0.01392 -0.08835,-0.490724 0.312067,-1.804299 1.119103,-3.671329 2.91217,-7.951961 4.512402,-10.772606 3.599704,-6.345006 8.492521,-10.5932787 14.073553,-12.2196198 1.426886,-0.4157905 3.249514,-0.7566288 3.364678,-0.6292013 0.03938,0.043646 -0.706356,1.2617951 -1.657151,2.7071819 -0.950796,1.4453872 -3.310912,5.1035432 -5.244694,8.1292432 -6.890293,10.780902 -8.551177,13.026783 -10.658813,14.413148 -1.073036,0.705822 -2.362638,0.854001 -3.773614,0.433647 z"
       id="path2057" />
    <path
       style="fill:#00ff00;stroke:#fef295;stroke-width:0"
       d="M 36.23,30.923923 C 36.084631,30.484762 35.557994,27.991447 35.334008,26.681999 34.604471,22.417018 34.699004,18.082521 35.584087,15.215492 37.104634,10.290066 40.548383,7.4157587 46.338184,6.2396294 48.224287,5.8565141 53.040681,5.8286201 55.38288,6.1872534 58.166822,6.6135388 58.083144,6.563147 56.584584,6.9110876 47.722347,8.9687334 40.885684,16.781741 36.813308,29.505835 36.528684,30.395148 36.266193,31.033278 36.23,30.923904 Z"
       id="path2059" />
  </g>
</svg>
